<?xml version="1.0" encoding="utf-8"?>
<!-- Generator: Adobe Illustrator 22.0.1, SVG Export Plug-In . SVG Version: 6.00 Build 0)  -->
<svg version="1.1" id="Layer_1" xmlns="http://www.w3.org/2000/svg" xmlns:xlink="http://www.w3.org/1999/xlink" x="0px" y="0px"
	 viewBox="0 0 100 100" style="enable-background:new 0 0 100 100;" xml:space="preserve">
<style type="text/css">
	.st0{fill:#EAEAEA;}
	.st1{fill:#600C1A;}
	.st2{fill:#FFFFFF;}
	.st3{fill:#4C4C4C;}
	.st4{fill:#CCCCCC;}
	.st5{fill:#C9B069;}
	.st6{fill:#C19529;}
	.st7{fill:none;stroke:#000000;stroke-width:10;stroke-miterlimit:10;}
	.st8{fill:none;stroke:#000000;stroke-width:8;stroke-miterlimit:10;}
	.st9{stroke:#000000;stroke-width:10;stroke-linecap:round;stroke-linejoin:round;stroke-miterlimit:10;}
	.st10{clip-path:url(#XMLID_7_);fill:#C9B069;}
	.st11{fill:#B2B2B2;}
	.st12{fill:none;}
	.st13{fill:#606060;}
	.st14{fill:#FFFFFF;stroke:#4C4C4C;stroke-miterlimit:10;}
	.st15{fill:#FFFFFF;stroke:#4C4C4C;stroke-width:0.8952;stroke-miterlimit:10;}
	.st16{fill:none;stroke:#4C4C4C;stroke-width:4.2279;stroke-linecap:round;stroke-linejoin:round;stroke-miterlimit:10;}
</style>
<g>
	<path d="M85.7,22.3L78.9,7.9H21.1l-6.7,14.4H1.3l8,59.5c0.8,5.8,5.7,10.1,11.6,10.1h58.3c5.8,0,10.8-4.3,11.6-10.1l8-59.5H85.7z
		 M25.2,14.3h49.7l3.7,8H21.4L25.2,14.3z M84.8,81c-0.4,2.8-2.8,5-5.7,5H20.9c-2.9,0-5.3-2.1-5.7-5L8,28.2h84L84.8,81z"/>
	<path d="M74.8,34.5c-2.6,0-4.8,2.1-4.8,4.8c0,1.4,0.6,2.7,1.6,3.6C68,53.1,58.7,57.8,50.1,57.8c0,0,0,0-0.1,0
		c-8.6,0-18-4.7-21.5-15.1c0.9-0.9,1.4-2.1,1.4-3.4c0-2.6-2.1-4.8-4.8-4.8c-2.6,0-4.8,2.1-4.8,4.8c0,2.2,1.5,4.1,3.5,4.6
		c4.1,12.8,15.6,18.6,26,18.6c0,0,0.1,0,0.1,0c10.5,0,22.1-5.8,26.2-18.7c1.9-0.6,3.3-2.4,3.3-4.5C79.6,36.6,77.4,34.5,74.8,34.5z"
		/>
</g>
</svg>
