<?xml version="1.0" encoding="utf-8"?>
<!-- Generator: Adobe Illustrator 22.0.1, SVG Export Plug-In . SVG Version: 6.00 Build 0)  -->
<svg version="1.1" id="Layer_1" xmlns="http://www.w3.org/2000/svg" xmlns:xlink="http://www.w3.org/1999/xlink" x="0px" y="0px"
	 viewBox="0 0 100 100" style="enable-background:new 0 0 100 100;" xml:space="preserve">
<style type="text/css">
	.st0{fill:#EAEAEA;}
	.st1{fill:#600C1A;}
	.st2{fill:#FFFFFF;}
	.st3{fill:#4C4C4C;}
	.st4{fill:#CCCCCC;}
	.st5{fill:#C9B069;}
	.st6{fill:#C19529;}
	.st7{fill:none;stroke:#000000;stroke-width:10;stroke-miterlimit:10;}
	.st8{fill:none;stroke:#000000;stroke-width:8;stroke-miterlimit:10;}
	.st9{stroke:#000000;stroke-width:10;stroke-linecap:round;stroke-linejoin:round;stroke-miterlimit:10;}
	.st10{clip-path:url(#XMLID_7_);fill:#C9B069;}
	.st11{fill:#B2B2B2;}
	.st12{fill:none;}
	.st13{fill:#606060;}
	.st14{fill:#FFFFFF;stroke:#4C4C4C;stroke-miterlimit:10;}
	.st15{fill:#FFFFFF;stroke:#4C4C4C;stroke-width:0.8952;stroke-miterlimit:10;}
	.st16{fill:none;stroke:#4C4C4C;stroke-width:4.2279;stroke-linecap:round;stroke-linejoin:round;stroke-miterlimit:10;}
	.st17{fill:none;stroke:#000000;stroke-width:6;stroke-miterlimit:10;}
	.st18{fill:none;stroke:#000000;stroke-width:4.8;stroke-miterlimit:10;}
	.st19{fill:none;stroke:#000000;stroke-width:6.5456;stroke-miterlimit:10;}
</style>
<path d="M70.9,6.2c-8.3,0-15.8,3.7-20.9,9.5c-5.1-5.8-12.5-9.5-20.9-9.5C13.8,6.2,1.4,18.6,1.4,33.9C1.4,64.8,50,93.8,50,93.8
	s48.6-29,48.6-59.9C98.6,18.6,86.2,6.2,70.9,6.2z M71.3,46.8L55.5,80.9c-0.9,2-2.7,3.3-4.5,3.7L51.4,55c0.5-0.2,0.9-0.5,1.3-0.9
	c1.9-1.9,1.9-4.9,0.1-6.7c-1.8-1.8-4.9-1.8-6.7,0.1c-1.9,1.9-1.9,4.9-0.1,6.7c0.6,0.6,1.2,0.9,1.9,1.2l-0.5,29.1
	c-1.5-0.5-2.9-1.6-3.6-3.3L28.7,48.2c-1.1-2.4-0.6-5.3,1.3-7.2l7.6-7.6c1.2-1.2,2.8-1.9,4.5-1.9L59,31.3c1.7,0,3.3,0.6,4.5,1.8
	l6.6,6.6C71.9,41.5,72.4,44.4,71.3,46.8z"/>
</svg>
