<?xml version="1.0" encoding="utf-8"?>
<!-- Generator: Adobe Illustrator 22.0.1, SVG Export Plug-In . SVG Version: 6.00 Build 0)  -->
<svg version="1.1" id="Layer_1" xmlns="http://www.w3.org/2000/svg" xmlns:xlink="http://www.w3.org/1999/xlink" x="0px" y="0px"
	 viewBox="0 0 200 200" style="enable-background:new 0 0 200 200;" xml:space="preserve">
<style type="text/css">
	.st0{fill:#EAEAEA;}
	.st1{fill:#600C1A;}
	.st2{fill:#FFFFFF;}
	.st3{fill:#4C4C4C;}
	.st4{fill:#CCCCCC;}
	.st5{fill:#C9B069;}
	.st6{fill:#C19529;}
	.st7{fill:none;stroke:#000000;stroke-width:10;stroke-miterlimit:10;}
	.st8{fill:none;stroke:#000000;stroke-width:8;stroke-miterlimit:10;}
	.st9{stroke:#000000;stroke-width:10;stroke-linecap:round;stroke-linejoin:round;stroke-miterlimit:10;}
	.st10{clip-path:url(#XMLID_7_);fill:#C9B069;}
	.st11{fill:#B2B2B2;}
	.st12{fill:none;}
	.st13{fill:#606060;}
	.st14{fill:#FFFFFF;stroke:#4C4C4C;stroke-miterlimit:10;}
	.st15{fill:#FFFFFF;stroke:#4C4C4C;stroke-width:0.8952;stroke-miterlimit:10;}
	.st16{fill:none;stroke:#4C4C4C;stroke-width:4.2279;stroke-linecap:round;stroke-linejoin:round;stroke-miterlimit:10;}
</style>
<g>
	<g>
		<path d="M22.5,56.1c0.8,0.6,1.7,0.8,2.5,0.7c0.8-0.1,1.7-0.4,2.5-0.9c0.8-0.5,1.7-1.1,2.6-1.8c0.9-0.7,1.7-1.4,2.7-2
			c0.9-0.7,1.9-1.2,2.8-1.6c1-0.4,2-0.6,3-0.5c1.1,0.1,2.2,0.5,3.3,1.3c1.5,1,2.5,2.3,3,3.7c0.5,1.4,0.5,3,0.1,4.6s-1.1,3.2-2.2,4.7
			c-0.7,1.1-1.6,2.1-2.6,3.1c-1,1-2.1,1.9-3.3,2.6l-5.2-3.9l1.1-1.6l4.6,2.3l-0.8-0.1c0.9-0.5,1.7-1.1,2.4-1.9
			c0.7-0.7,1.4-1.5,1.9-2.2c0.7-1,1.2-2.1,1.5-3.1c0.3-1.1,0.3-2.1,0-3c-0.3-1-0.9-1.7-1.8-2.4c-0.9-0.6-1.7-0.9-2.6-0.8
			c-0.8,0.1-1.7,0.4-2.5,0.8c-0.8,0.5-1.7,1.1-2.6,1.8c-0.9,0.7-1.7,1.4-2.6,2c-0.9,0.7-1.8,1.2-2.8,1.6c-1,0.4-1.9,0.6-3,0.5
			c-1-0.1-2.1-0.5-3.3-1.2c-1.4-1-2.3-2.1-2.8-3.4c-0.5-1.3-0.5-2.7-0.2-4.2c0.4-1.5,1-3,2-4.5c0.7-1,1.5-2,2.5-3
			c1-1,2.1-1.8,3.3-2.6l5,3.8l-1.1,1.6l-4.3-2.2l0.7-0.1c-0.7,0.5-1.4,1-2.1,1.7c-0.7,0.7-1.3,1.4-1.8,2.1c-0.6,0.9-1.1,1.8-1.4,2.8
			c-0.3,1-0.3,1.9-0.1,2.8C21,54.8,21.6,55.5,22.5,56.1z"/>
		<path d="M60.7,46c-1.7,1.2-3.6,1.9-5.7,2.1c-2.1,0.1-4.1-0.4-6.2-1.5c-2-1.1-4-2.9-5.7-5.4c-1.7-2.4-2.8-4.8-3.2-7.2
			c-0.4-2.3-0.2-4.5,0.7-6.5c0.8-2,2.3-3.7,4.3-5.2c1.1-0.8,2.3-1.4,3.6-2c1.3-0.6,2.8-1,4.5-1.4l3.4,5.2l-1.6,1.1l-3.4-3.6l0.9,0.2
			c-1.1,0.3-2.2,0.6-3.2,1c-1,0.4-1.9,0.9-2.6,1.5c-1.5,1.1-2.5,2.4-3,3.9c-0.5,1.5-0.6,3.2-0.2,5c0.4,1.8,1.3,3.7,2.7,5.6
			c1.5,2.1,3,3.6,4.7,4.6c1.6,1,3.3,1.4,4.9,1.4c1.6,0,3.1-0.5,4.5-1.5c1-0.7,1.9-1.7,2.7-2.9c0.8-1.2,1.4-2.6,1.7-4.2l2.2,0.8
			c-0.5,2-1.2,3.8-2.2,5.3C63.2,43.8,62.1,45,60.7,46z"/>
		<path d="M71.5,38.5L71,36.9l3.6-1.8l-0.3,0.8l-6.2-23.2l0.8,0.6l-4.1,0.3l-0.4-1.7l6.5-1.9l4.5-1.2c2.9-0.8,5.2-0.8,7,0.1
			c1.8,0.8,3,2.3,3.6,4.6c0.6,2.1,0.4,4-0.6,5.7c-1,1.7-2.7,3-5.4,4l-0.1-0.4c1-0.2,1.9-0.2,2.6,0c0.7,0.2,1.4,0.5,2,1
			c0.6,0.5,1.2,1.1,1.8,1.8l5,5.7l-1.1-0.4l3.5,0l0.4,1.7l-4.7,1.3l-5.5-6.6c-0.8-1-1.5-1.7-2.1-2.2c-0.6-0.5-1.3-0.8-2-0.8
			c-0.7-0.1-1.7,0-2.9,0.4l-2.6,0.7l0.4-0.7l2.8,10.5l-0.7-0.6l4.7-0.4l0.4,1.7L71.5,38.5z M74.4,23.6l-0.8-0.7l3.6-1
			c2.3-0.6,3.9-1.5,4.9-2.8c1-1.3,1.2-2.8,0.7-4.6c-0.4-1.6-1.2-2.7-2.5-3.2c-1.2-0.6-2.8-0.6-4.8-0.1l-4.8,1.3l0.4-0.7L74.4,23.6z"
			/>
		<path d="M107.5,7.5l-3.9,0.8l0.5-0.5l-0.6,23.7l-0.4-0.6l3.9,0.9l0,1.7l-10.1-0.3l0-1.7l3.9-0.7l-0.5,0.5l0.6-23.7l0.5,0.6
			l-3.9-0.8l0-1.7l10.1,0.1L107.5,7.5z"/>
		<path d="M122.9,26.1l-3.5-1.1l0.9-0.4l-2.7,9l-0.3-0.8l4.5,2.2l-0.5,1.6l-10.6-3.2l0.5-1.6l4.1,0.4l-0.8,0.5l7-23l0.4,0.9
			l-3.7-1.9l0.5-1.6l6.5,1.8l4.3,1.3c2,0.6,3.5,1.4,4.5,2.5c1.1,1,1.7,2.2,2,3.6c0.3,1.4,0.2,2.8-0.3,4.4c-0.5,1.7-1.4,3.1-2.5,4.1
			c-1.2,1.1-2.6,1.7-4.3,2C127.1,27,125.1,26.8,122.9,26.1z M128.3,12.4l-4.5-1.4l0.7-0.4l-3.9,12.9l-0.5-0.8l3.5,1.1
			c2.2,0.7,4.1,0.6,5.7-0.1c1.5-0.7,2.6-2.1,3.2-4c0.5-1.7,0.4-3.2-0.3-4.5C131.5,13.9,130.2,13,128.3,12.4z"/>
		<path d="M135.4,42.9l1-1.4l4.2,2l-1,0.3l14-19.8l0.2,0.9l-6.3-4.4l1-0.1L145,24l-1.6-1.1l3.9-5.5l17.2,12.2l-3.9,5.5l-1.6-1.1
			l2.2-4.5l0.3,0.9l-6.3-4.4l0.9-0.1l-14,19.8l0-1.1l3.2,3.3l-1,1.4L135.4,42.9z"/>
		<path d="M163.5,69.2l0.1-1.2l1.6,3.5l-1.4,1l-6.1-8.3l1.4-1l3.1,2.8l-0.6,0.1l3.9-5.5l0,0.8l-7.2-9.8l0.7,0.2l-6.4,1.9l0.2-0.4
			l1.8,3.7l-1.4,1l-5.8-7.9l1.4-1l2.8,2.4l-1.1-0.2l26.6-7.6l2.1,2.6L163.5,69.2z M160.2,51.3l0.2-0.6l6.5,8.7l-0.7,0l9.9-13.8
			l0.4,0.6L160.2,51.3z"/>
	</g>
	<g>
		<path d="M14.1,134.3l1-0.5l1.5,2.1l-0.4-0.1l14.2-6.3L30,130l-0.6-2.5l1-0.5l1.9,3.9l3.3,7.5l-3.7,1.7l-0.5-1.2l2.4-1.6l-0.1,0.5
			l-3-6.6l0.5,0.2l-6.8,3l0.2-0.5l2.7,6.1l-1.4,0.6l-2.7-6.1l0.5,0.2l-6.7,3l0.2-0.4l0.8,3l-1,0.5L14.1,134.3z"/>
		<path d="M25.4,155.7c-0.9-1.2-1.4-2.5-1.5-3.8c-0.1-1.3,0.1-2.7,0.8-4c0.7-1.3,1.9-2.6,3.5-3.8c1.3-0.9,2.5-1.5,3.7-1.9
			c1.2-0.3,2.3-0.4,3.4-0.3c1.1,0.2,2.1,0.5,3,1.1c0.9,0.6,1.7,1.3,2.3,2.3c0.6,0.9,1.1,1.8,1.4,2.8c0.3,1,0.3,2,0.1,3
			c-0.2,1-0.6,2-1.3,3c-0.7,1-1.6,1.9-2.8,2.8c-1.7,1.2-3.3,1.9-4.8,2.1c-1.6,0.2-3,0.1-4.4-0.5C27.4,157.9,26.3,157,25.4,155.7z
			 M26.8,154.8c0.6,0.9,1.4,1.5,2.4,1.9c1,0.4,2.1,0.5,3.3,0.3c1.2-0.2,2.6-0.9,4.1-1.9c1.4-1,2.4-2,3-3.1c0.6-1,0.8-2.1,0.7-3.1
			c-0.1-1-0.4-2-1.1-2.8c-0.6-0.9-1.4-1.5-2.3-1.9c-0.9-0.4-2-0.5-3.3-0.3c-1.2,0.2-2.6,0.9-4,1.9c-1.4,1-2.4,2-3,3.1
			c-0.6,1.1-0.9,2.1-0.8,3.1C25.9,153.1,26.2,154,26.8,154.8z"/>
		<path d="M54,159.9l5.1,4.2l-0.7,0.8l-2.3-1.2l0.6-0.2l-6.5,7.7c-0.4,0.5-0.9,0.9-1.4,1.4s-1.1,0.8-1.7,1.1
			c-0.6,0.3-1.2,0.4-1.9,0.5c-0.7,0-1.4-0.1-2.2-0.4c-0.8-0.3-1.6-0.8-2.5-1.6c-1-0.8-1.7-1.7-2.1-2.5c-0.4-0.8-0.6-1.6-0.6-2.3
			c0-0.7,0.1-1.4,0.4-2c0.3-0.6,0.5-1.1,0.9-1.6c0.3-0.5,0.6-0.9,0.9-1.2l6.7-7.9l-0.1,0.6l-1.6-2l0.7-0.8l5.1,4.2l-0.7,0.8
			l-2.3-1.2l0.6-0.2l-6.7,7.9c-0.3,0.3-0.6,0.7-0.8,1.1c-0.3,0.4-0.5,0.8-0.7,1.2c-0.2,0.4-0.3,0.9-0.2,1.4c0,0.5,0.2,1,0.5,1.5
			c0.3,0.5,0.8,1.1,1.4,1.6c0.7,0.6,1.3,1,1.9,1.2c0.6,0.2,1.1,0.3,1.6,0.2c0.5-0.1,1-0.2,1.4-0.5c0.4-0.3,0.8-0.6,1.2-0.9
			c0.3-0.4,0.7-0.7,1-1.1l6.5-7.7l-0.1,0.6l-1.6-1.9L54,159.9z"/>
		<path d="M70,169.7l5.7,2.7l-0.5,1l-2.6-0.6l0.5-0.3l-7.5,15.1l-2.1-1.1l-1.9-18.5l0.3,0.1l-6.5,13.1l-0.1-0.6l2.1,1.6l-0.5,1
			l-5.6-2.8l0.5-1l2.6,0.7l-0.6,0.2l6.9-14l0,0.5l-2-1.5l0.5-1l4.3,2l1.9,18.3l-0.3-0.1l6.4-12.8l0.1,0.6l-2.1-1.6L70,169.7z"/>
		<path d="M74.2,190.2l0.3-1.1l3,0.2l-0.5,0.5l3.8-15.3l0.4,0.5l-4.8-1.2l0.6-0.3l-1.3,3.1l-1.3-0.3l1.1-4.3l13.3,3.3l-1.1,4.3
			l-1.3-0.3l0.3-3.3l0.4,0.5l-4.8-1.2l0.5-0.3L79,190.3l-0.2-0.6l2.7,1.3l-0.3,1.1L74.2,190.2z"/>
		<path d="M101.4,193l-0.6-0.6l2.4,0.7l-0.1,1.1l-6.7-0.4l0.1-1.1l2.7-0.3l-0.2,0.3l-1.1-4.2l0.4,0.3l-7.9-0.5l0.4-0.3l-1.7,4
			l-0.1-0.3l2.6,0.7l-0.1,1.1l-6.3-0.4l0.1-1.1l2.4-0.4L87,192l7.4-16.4l2.1,0.1L101.4,193z M91.1,187.2l-0.2-0.3l7,0.5l-0.3,0.3
			L95,176.9l0.5,0.1L91.1,187.2z"/>
		<path d="M110.5,176.3l-2.5,0.8l0.2-0.4l1.5,15.4l-0.3-0.3l2.6,0.3l0.1,1.1l-6.6,0.6l-0.1-1.1l2.4-0.8l-0.2,0.4l-1.5-15.4l0.4,0.4
			l-2.6-0.2l-0.1-1.1l6.5-0.8L110.5,176.3z"/>
		<path d="M123.3,172.3l6-1.9l0.3,1.1l-2.3,1.3l0.2-0.6l4.7,16.1l-2.3,0.7L116,176.6l0.3-0.1l4.1,14l-0.5-0.3l2.7-0.2l0.3,1.1
			l-6,1.7l-0.3-1.1l2.4-1.2l-0.2,0.6l-4.4-15l0.4,0.4l-2.5,0.3l-0.3-1.1l4.5-1.4l13.7,12.2l-0.3,0.1l-4-13.8l0.5,0.3l-2.6,0.3
			L123.3,172.3z"/>
		<path d="M145.4,173.7l-2,1.3l0.2-0.6l3.3,5.1l-0.5-0.2l3-1.3l0.6,0.9l-6,3.9l-0.6-0.9l1.9-1.9l-0.1,0.6l-8.4-13.2l0.6,0.2l-2.5,1
			l-0.6-0.9l3.6-2.5l2.5-1.6c1.1-0.7,2.2-1.1,3.1-1.2c1-0.1,1.8,0.1,2.6,0.5c0.8,0.4,1.5,1.1,2,2c0.6,1,1,2,1,3c0,1-0.2,2-0.8,3
			C147.6,172,146.7,172.9,145.4,173.7z M140.9,165.3l-2.6,1.6l0.1-0.5l4.7,7.4l-0.6-0.1l2-1.3c1.3-0.8,2.1-1.8,2.3-2.8
			c0.3-1.1,0.1-2.2-0.6-3.2c-0.6-1-1.4-1.6-2.3-1.8C143,164.3,142,164.6,140.9,165.3z"/>
		<path d="M163.5,162.4l0.9-0.9l2.9,3.1l-9.5,9l-0.8-0.8l1.5-2.2l0.1,0.6L148,159.8l0.6,0.1l-2.2,1.4l-0.8-0.8l3-3.1l6.1-5.8l2.8,3
			l-0.9,0.9l-2.3-1.7l0.5-0.1l-5.4,5.1l0-0.5l5,5.3l-0.5,0l5-4.7l1.1,1.1l-5,4.7l0-0.6l5.3,5.6l-0.5,0l5.7-5.4l-0.1,0.6L163.5,162.4
			z"/>
		<path d="M162.9,140.6l3.4-5.3l0.9,0.6l-0.9,2.5l-0.2-0.6l14,9.3l-1.3,2l-18.6-0.4l0.1-0.3l12.2,8.1l-0.6,0.1l1.9-1.9l0.9,0.6
			l-3.4,5.2l-0.9-0.6l1-2.5l0.2,0.6l-13-8.6l0.5,0l-1.7,1.8l-0.9-0.6l2.5-4l18.3,0.4l-0.1,0.3l-12-7.9l0.6,0l-1.8,1.9L162.9,140.6z"
			/>
		<path d="M171.2,133.8c0.6,0.2,1.2,0.3,1.7,0.1c0.5-0.2,1-0.5,1.4-0.9c0.5-0.4,0.9-0.9,1.3-1.5c0.4-0.6,0.9-1.1,1.4-1.7
			c0.5-0.6,1-1,1.5-1.4c0.5-0.4,1.2-0.7,1.8-0.8c0.7-0.1,1.4,0,2.3,0.3c1.1,0.4,1.9,1.1,2.4,1.9c0.5,0.8,0.7,1.8,0.7,2.9
			c0,1.1-0.2,2.2-0.7,3.3c-0.3,0.8-0.7,1.6-1.2,2.4c-0.5,0.8-1.1,1.5-1.7,2.2l-3.9-1.7l0.5-1.2l3.2,0.8l-0.5,0.1
			c0.5-0.5,0.9-1,1.3-1.5c0.4-0.6,0.7-1.1,0.9-1.7c0.3-0.8,0.4-1.5,0.4-2.2c0-0.7-0.1-1.4-0.5-1.9c-0.3-0.6-0.8-1-1.5-1.2
			c-0.6-0.2-1.2-0.3-1.7-0.1c-0.5,0.2-1,0.5-1.5,0.9c-0.5,0.4-0.9,0.9-1.3,1.5c-0.4,0.6-0.9,1.1-1.4,1.7c-0.5,0.6-1,1-1.5,1.4
			c-0.5,0.4-1.1,0.7-1.8,0.8c-0.7,0.1-1.4,0-2.3-0.3c-1-0.4-1.8-1-2.3-1.7c-0.5-0.8-0.7-1.7-0.7-2.7c0-1,0.2-2,0.6-3.1
			c0.3-0.8,0.7-1.5,1.1-2.3c0.5-0.8,1-1.5,1.7-2.1l3.7,1.6l-0.5,1.2l-3-0.7l0.4-0.2c-0.4,0.4-0.8,0.9-1.1,1.4
			c-0.3,0.5-0.6,1.1-0.8,1.6c-0.3,0.7-0.4,1.3-0.4,2c0,0.7,0.1,1.3,0.3,1.8C170.1,133.1,170.6,133.5,171.2,133.8z"/>
	</g>
	<circle cx="20" cy="102" r="5"/>
	<circle cx="179.4" cy="102.5" r="5"/>
	<path d="M100,43.5c-32.6,0-59,26.4-59,59c0,32.6,26.4,59,59,59s59-26.4,59-59C159,69.9,132.6,43.5,100,43.5z M129.2,112.9
		c0,3.7-2.3,7-5.9,8.3L74,139.2c-2.9,1.1-5.8,0.6-8.1-0.9l29.8-28.8c0.7,0.2,1.5,0.4,2.3,0.4c3.7,0,6.7-3,6.7-6.6
		c0-3.6-3-6.6-6.7-6.6s-6.7,3-6.7,6.6c0,1.1,0.3,2.1,0.8,3.1l-29.3,28.3c-1-2-1.2-4.4-0.3-6.8l17.5-47.5c1.3-3.5,4.7-5.8,8.5-5.8h15
		c2.4,0,4.7,0.9,6.4,2.6l16.8,16.4c1.7,1.7,2.6,3.9,2.6,6.2V112.9z M145.3,85l-9.9,6.2c-1.8,1.1-4.1,0.9-5.6-0.6l-16.8-16.4
		c-1.4-1.4-1.7-3.6-0.7-5.3l6-10c1.5-2.5,4.9-2.9,7-0.9l20.7,20.2C148.1,80.2,147.7,83.5,145.3,85z"/>
</g>
</svg>
